<mxfile host="Electron" agent="Mozilla/5.0 (X11; Linux x86_64) AppleWebKit/537.36 (KHTML, like Gecko) draw.io/26.0.16 Chrome/132.0.6834.196 Electron/34.2.0 Safari/537.36" version="26.0.16">
  <diagram name="diagram" id="3LejLTK9y8oluQcb59RT">
    <mxGraphModel dx="1434" dy="838" grid="1" gridSize="10" guides="1" tooltips="1" connect="1" arrows="1" fold="1" page="1" pageScale="1" pageWidth="850" pageHeight="1100" math="0" shadow="0">
      <root>
        <mxCell id="0" />
        <mxCell id="1" parent="0" />
        <mxCell id="yl9QpyEdUntGLPc8Gwdy-3" value="rtmp" style="edgeStyle=orthogonalEdgeStyle;rounded=0;orthogonalLoop=1;jettySize=auto;html=1;entryX=0;entryY=0.5;entryDx=0;entryDy=0;" parent="1" source="yl9QpyEdUntGLPc8Gwdy-1" target="yl9QpyEdUntGLPc8Gwdy-2" edge="1">
          <mxGeometry relative="1" as="geometry" />
        </mxCell>
        <mxCell id="yl9QpyEdUntGLPc8Gwdy-1" value="RTMP Source" style="rounded=0;whiteSpace=wrap;html=1;" parent="1" vertex="1">
          <mxGeometry x="120" y="160" width="120" height="40" as="geometry" />
        </mxCell>
        <mxCell id="yl9QpyEdUntGLPc8Gwdy-9" value="" style="dashed=0;outlineConnect=0;html=1;align=center;labelPosition=center;verticalLabelPosition=bottom;verticalAlign=top;shape=mxgraph.weblogos.youtube;fillColor=#FF2626;gradientColor=#B5171F" parent="1" vertex="1">
          <mxGeometry x="720" y="160" width="95.56" height="40" as="geometry" />
        </mxCell>
        <mxCell id="yl9QpyEdUntGLPc8Gwdy-10" value="rtmps" style="edgeStyle=orthogonalEdgeStyle;rounded=0;orthogonalLoop=1;jettySize=auto;html=1;exitX=1;exitY=0.5;exitDx=0;exitDy=0;" parent="1" source="yl9QpyEdUntGLPc8Gwdy-2" target="yl9QpyEdUntGLPc8Gwdy-9" edge="1">
          <mxGeometry relative="1" as="geometry" />
        </mxCell>
        <mxCell id="yl9QpyEdUntGLPc8Gwdy-13" value="" style="verticalLabelPosition=bottom;aspect=fixed;html=1;shape=mxgraph.salesforce.web2;" parent="1" vertex="1">
          <mxGeometry x="720" y="240" width="80" height="80" as="geometry" />
        </mxCell>
        <mxCell id="yl9QpyEdUntGLPc8Gwdy-14" value="https/wss/webrtc/rtsp" style="edgeStyle=orthogonalEdgeStyle;rounded=0;orthogonalLoop=1;jettySize=auto;html=1;entryX=0;entryY=0.499;entryDx=0;entryDy=0;entryPerimeter=0;exitX=1;exitY=0.75;exitDx=0;exitDy=0;" parent="1" source="yl9QpyEdUntGLPc8Gwdy-2" target="yl9QpyEdUntGLPc8Gwdy-13" edge="1">
          <mxGeometry relative="1" as="geometry" />
        </mxCell>
        <mxCell id="yl9QpyEdUntGLPc8Gwdy-21" value="RaspberryPi" style="swimlane;whiteSpace=wrap;html=1;startSize=40;" parent="1" vertex="1">
          <mxGeometry x="320" y="80" width="200" height="160" as="geometry" />
        </mxCell>
        <mxCell id="yl9QpyEdUntGLPc8Gwdy-2" value="go2rtc or mediamtx" style="rounded=0;whiteSpace=wrap;html=1;" parent="yl9QpyEdUntGLPc8Gwdy-21" vertex="1">
          <mxGeometry x="45" y="80" width="120" height="40" as="geometry" />
        </mxCell>
        <mxCell id="yl9QpyEdUntGLPc8Gwdy-29" value="" style="shape=image;verticalLabelPosition=bottom;labelBackgroundColor=default;verticalAlign=top;aspect=fixed;imageAspect=0;image=https://github.com/AlexxIT/go2rtc/raw/master/assets/go2rtc.png;imageBorder=default;" parent="1" vertex="1">
          <mxGeometry x="250" y="320" width="350" height="175" as="geometry" />
        </mxCell>
        <mxCell id="yl9QpyEdUntGLPc8Gwdy-30" style="edgeStyle=orthogonalEdgeStyle;rounded=0;orthogonalLoop=1;jettySize=auto;html=1;entryX=0.5;entryY=0;entryDx=0;entryDy=0;endArrow=none;startFill=0;dashed=1;" parent="1" source="yl9QpyEdUntGLPc8Gwdy-2" target="yl9QpyEdUntGLPc8Gwdy-29" edge="1">
          <mxGeometry relative="1" as="geometry" />
        </mxCell>
      </root>
    </mxGraphModel>
  </diagram>
</mxfile>
